<svg width="2556" height="1399" viewBox="0 0 2556 1399" fill="none" xmlns="http://www.w3.org/2000/svg">
<path fill-rule="evenodd" clip-rule="evenodd" d="M2556 0H0V1399H2556V0ZM1080.19 829.649L1192.01 769.751L1198.01 782.016C1210.91 808.352 1239.91 825.835 1280.38 825.835C1300.2 825.835 1315.08 820.393 1324.74 812.339C1334.21 804.453 1339.57 793.376 1339.57 779.701C1339.57 763.526 1333.98 753.367 1323.24 746.461C1311.39 738.835 1291.69 734.192 1261.67 734.192H1116.16L1131.28 448.095H1455.11V571.233H1251.64L1248.8 620.419H1285.37C1343.26 620.419 1390.45 634.982 1423.39 662.872C1456.61 690.997 1473.83 731.418 1473.83 779.701C1473.83 827.485 1454.43 869.524 1420.1 899.451C1385.88 929.282 1337.57 946.475 1280.38 946.475C1192.63 946.475 1119.15 909.225 1085.78 841.069L1080.19 829.649Z" fill="#FFB900"/>
</svg>
