<svg width="512" height="256" viewBox="0 0 512 256" fill="none" xmlns="http://www.w3.org/2000/svg">
<path d="M0 160.667C0 215 40.9242 255.667 96.9433 255.667C152.292 255.667 193.887 215 193.887 160.667C193.887 107 152.292 66 96.9433 66C40.9242 66 0 106.667 0 160.667ZM144.912 160.667C144.912 175 140.551 187 131.494 196.667C122.772 206.333 111.367 211 96.9433 211C82.5192 211 71.1141 206.333 62.0571 196.667C53.0001 187 48.6394 175 48.6394 160.667C48.6394 146.333 53.0001 134.333 62.0571 125C71.1141 115.333 82.5192 110.667 96.9433 110.667C111.367 110.667 122.772 115.333 131.494 125C140.551 134.333 144.912 146.333 144.912 160.667Z" fill="white"/>
<path d="M409.318 148.667C409.318 96.6667 380.805 66 333.843 66C309.691 66 289.564 77 279.165 94.6667V0H228.178V251H279.165V157.667C279.165 128.333 297.279 110 321.431 110C345.248 110 358.33 124.333 358.33 152.333V251H409.318V148.667Z" fill="white"/>
<path d="M507.639 4.33334H450.614L455.645 172.333H502.608L507.639 4.33334ZM446.253 224.333C446.253 242.667 460.342 256 479.127 256C497.911 256 512 242.667 512 224.333C512 206.667 497.911 193 479.127 193C460.342 193 446.253 206.667 446.253 224.333Z" fill="white"/>
</svg>
